<svg width="196" height="46" viewBox="0 0 196 46" fill="none" xmlns="http://www.w3.org/2000/svg">
<path d="M81.459 23.3828C81.2246 22.7028 80.9823 22.0311 80.7314 21.3677C80.4804 20.7043 80.2373 20.0243 80.0037 19.3277H72.6751C72.4407 20.0243 72.1985 20.7126 71.9475 21.3926C71.7131 22.056 71.4787 22.7194 71.2443 23.3828H67.9573C68.6091 21.5418 69.2287 19.8419 69.8143 18.2829C70.3999 16.7238 70.9689 15.2478 71.5205 13.8546C72.0895 12.4615 72.6499 11.1346 73.2023 9.87416C73.7539 8.61369 74.323 7.3698 74.9086 6.14249H77.8949C78.4805 7.3698 79.0495 8.61369 79.602 9.87416C80.1536 11.1346 80.7061 12.4615 81.2586 13.8546C81.8267 15.2478 82.4045 16.7238 82.9901 18.2829C83.5922 19.8419 84.2196 21.5418 84.8723 23.3828H81.459ZM76.3394 9.47612C75.9543 10.3551 75.5107 11.4249 75.0088 12.6854C74.5243 13.9458 74.0136 15.3141 73.4786 16.7902H79.2003C78.6652 15.3141 78.1459 13.9375 77.6439 12.6605C77.142 11.3834 76.7072 10.322 76.3394 9.47612ZM85.8492 16.8897C85.8492 15.9278 85.9999 15.0322 86.3006 14.2029C86.6021 13.3571 87.0282 12.6273 87.5807 12.0137C88.1497 11.4 88.8355 10.919 89.639 10.5707C90.4416 10.2225 91.3452 10.0483 92.3491 10.0483C93.5874 10.0483 94.7586 10.2722 95.8626 10.72L95.2099 13.1829C94.8588 13.0336 94.457 12.9093 94.0057 12.8097C93.5708 12.7102 93.102 12.6605 92.6001 12.6605C91.4123 12.6605 90.5087 13.0336 89.89 13.78C89.2704 14.5097 88.961 15.5463 88.961 16.8897C88.961 18.1833 89.2538 19.2116 89.8394 19.9745C90.425 20.7209 91.4123 21.094 92.8005 21.094C93.3199 21.094 93.8296 21.0443 94.3316 20.9448C94.8335 20.8453 95.2683 20.7209 95.6369 20.5716L96.0631 23.0594C95.7284 23.2252 95.2187 23.3745 94.5329 23.5072C93.8636 23.6399 93.1691 23.7062 92.4493 23.7062C91.3287 23.7062 90.3501 23.5404 89.5135 23.2087C88.6935 22.8604 88.0077 22.3877 87.4552 21.7906C86.9202 21.177 86.5184 20.4555 86.2509 19.6263C85.9825 18.7804 85.8492 17.8682 85.8492 16.8897ZM97.6865 16.8897C97.6865 15.9278 97.8373 15.0322 98.1388 14.2029C98.4394 13.3571 98.8664 12.6273 99.418 12.0137C99.9871 11.4 100.673 10.919 101.476 10.5707C102.28 10.2225 103.183 10.0483 104.186 10.0483C105.425 10.0483 106.596 10.2722 107.7 10.72L107.048 13.1829C106.696 13.0336 106.295 12.9093 105.843 12.8097C105.408 12.7102 104.939 12.6605 104.437 12.6605C103.25 12.6605 102.346 13.0336 101.727 13.78C101.109 14.5097 100.798 15.5463 100.798 16.8897C100.798 18.1833 101.091 19.2116 101.677 19.9745C102.262 20.7209 103.25 21.094 104.639 21.094C105.157 21.094 105.668 21.0443 106.17 20.9448C106.672 20.8453 107.107 20.7209 107.474 20.5716L107.901 23.0594C107.567 23.2252 107.056 23.3745 106.37 23.5072C105.701 23.6399 105.006 23.7062 104.287 23.7062C103.166 23.7062 102.187 23.5404 101.351 23.2087C100.531 22.8604 99.845 22.3877 99.2925 21.7906C98.7575 21.177 98.3558 20.4555 98.0882 19.6263C97.8207 18.7804 97.6865 17.8682 97.6865 16.8897ZM117.731 13.0834C117.48 13.0005 117.129 12.9175 116.677 12.8346C116.242 12.7351 115.732 12.6854 115.146 12.6854C114.812 12.6854 114.452 12.7185 114.067 12.7849C113.699 12.8512 113.439 12.9093 113.289 12.959V23.3828H110.252V10.9937C110.838 10.7781 111.566 10.579 112.435 10.3966C113.322 10.1976 114.301 10.0981 115.372 10.0981C115.572 10.0981 115.807 10.1146 116.074 10.1478C116.343 10.1644 116.61 10.1976 116.878 10.2473C117.145 10.2805 117.405 10.3303 117.656 10.3966C117.907 10.4464 118.107 10.4961 118.258 10.5459L117.731 13.0834ZM119.646 16.9395C119.646 15.7951 119.814 14.7917 120.148 13.9292C120.499 13.0668 120.959 12.3536 121.528 11.7898C122.097 11.2093 122.75 10.7781 123.487 10.4961C124.222 10.1976 124.975 10.0483 125.745 10.0483C127.552 10.0483 128.957 10.6039 129.961 11.7151C130.982 12.8263 131.492 14.4848 131.492 16.6907C131.492 16.8565 131.484 17.0473 131.467 17.2629C131.467 17.4619 131.458 17.6443 131.442 17.8102H122.783C122.867 18.855 123.236 19.6677 123.887 20.2482C124.557 20.8121 125.519 21.094 126.774 21.094C127.51 21.094 128.179 21.0277 128.781 20.895C129.401 20.7623 129.886 20.6214 130.237 20.4721L130.639 22.935C130.472 23.0179 130.237 23.1091 129.936 23.2087C129.652 23.2916 129.317 23.3662 128.932 23.4326C128.564 23.5155 128.163 23.5818 127.728 23.6316C127.293 23.6813 126.849 23.7062 126.397 23.7062C125.243 23.7062 124.239 23.5404 123.385 23.2087C122.532 22.8604 121.83 22.3877 121.277 21.7906C120.726 21.177 120.315 20.4638 120.048 19.6511C119.78 18.8219 119.646 17.918 119.646 16.9395ZM128.455 15.5961C128.455 15.1814 128.397 14.7917 128.279 14.4268C128.163 14.0453 127.987 13.7219 127.753 13.4566C127.535 13.1746 127.259 12.959 126.924 12.8097C126.606 12.6439 126.222 12.561 125.77 12.561C125.302 12.561 124.891 12.6522 124.54 12.8346C124.189 13.0005 123.887 13.2244 123.636 13.5063C123.403 13.7883 123.218 14.1117 123.085 14.4766C122.951 14.8414 122.859 15.2146 122.809 15.5961H128.455ZM137.095 16.8399C137.095 18.1668 137.414 19.2116 138.05 19.9745C138.685 20.7209 139.563 21.094 140.685 21.094C141.17 21.094 141.58 21.0775 141.914 21.0443C142.266 20.9945 142.551 20.9448 142.767 20.895V13.4317C142.5 13.2492 142.14 13.0834 141.689 12.9341C141.254 12.7683 140.785 12.6854 140.283 12.6854C139.179 12.6854 138.368 13.0585 137.848 13.8049C137.346 14.5512 137.095 15.5629 137.095 16.8399ZM145.804 22.9848C145.202 23.1672 144.441 23.333 143.52 23.4823C142.617 23.6316 141.663 23.7062 140.66 23.7062C139.623 23.7062 138.694 23.5486 137.874 23.2335C137.054 22.9184 136.351 22.4706 135.766 21.8901C135.197 21.2931 134.753 20.5799 134.436 19.7506C134.134 18.9048 133.984 17.9594 133.984 16.9146C133.984 15.8863 134.109 14.9575 134.36 14.1283C134.628 13.2824 135.013 12.561 135.515 11.9639C136.017 11.3668 136.627 10.9107 137.346 10.5956C138.066 10.2639 138.894 10.0981 139.832 10.0981C140.467 10.0981 141.027 10.1727 141.513 10.322C141.998 10.4712 142.416 10.6371 142.767 10.8195V4.57519L145.804 4.07764V22.9848ZM152.723 23.3828H149.687V10.3717H152.723V23.3828ZM153.05 6.56542C153.05 7.12931 152.866 7.57711 152.498 7.90882C152.13 8.24052 151.695 8.40637 151.193 8.40637C150.674 8.40637 150.231 8.24052 149.863 7.90882C149.495 7.57711 149.311 7.12931 149.311 6.56542C149.311 5.98494 149.495 5.52884 149.863 5.19714C150.231 4.86543 150.674 4.69958 151.193 4.69958C151.695 4.69958 152.13 4.86543 152.498 5.19714C152.866 5.52884 153.05 5.98494 153.05 6.56542ZM156.447 6.93858L159.484 6.44103V10.3717H164.152V12.8844H159.484V18.1833C159.484 19.2282 159.651 19.9745 159.986 20.4223C160.32 20.8701 160.889 21.094 161.693 21.094C162.245 21.094 162.73 21.036 163.148 20.9199C163.583 20.8038 163.926 20.696 164.177 20.5965L164.679 22.9848C164.328 23.134 163.868 23.2833 163.299 23.4326C162.73 23.5984 162.061 23.6813 161.291 23.6813C160.354 23.6813 159.568 23.5569 158.932 23.3082C158.313 23.0594 157.819 22.7028 157.451 22.2384C157.083 21.7575 156.823 21.1853 156.674 20.5219C156.523 19.8419 156.447 19.0707 156.447 18.2082V6.93858ZM166.139 16.9395C166.139 15.7951 166.306 14.7917 166.641 13.9292C166.992 13.0668 167.452 12.3536 168.021 11.7898C168.59 11.2093 169.243 10.7781 169.979 10.4961C170.715 10.1976 171.468 10.0483 172.238 10.0483C174.044 10.0483 175.45 10.6039 176.454 11.7151C177.474 12.8263 177.985 14.4848 177.985 16.6907C177.985 16.8565 177.976 17.0473 177.96 17.2629C177.96 17.4619 177.951 17.6443 177.934 17.8102H169.276C169.36 18.855 169.728 19.6677 170.38 20.2482C171.049 20.8121 172.011 21.094 173.266 21.094C174.003 21.094 174.672 21.0277 175.274 20.895C175.894 20.7623 176.379 20.6214 176.73 20.4721L177.132 22.935C176.964 23.0179 176.73 23.1091 176.429 23.2087C176.144 23.2916 175.81 23.3662 175.425 23.4326C175.057 23.5155 174.655 23.5818 174.22 23.6316C173.786 23.6813 173.342 23.7062 172.89 23.7062C171.736 23.7062 170.732 23.5404 169.878 23.2087C169.025 22.8604 168.323 22.3877 167.77 21.7906C167.219 21.177 166.808 20.4638 166.541 19.6511C166.273 18.8219 166.139 17.918 166.139 16.9395ZM174.948 15.5961C174.948 15.1814 174.89 14.7917 174.772 14.4268C174.655 14.0453 174.479 13.7219 174.246 13.4566C174.028 13.1746 173.752 12.959 173.417 12.8097C173.099 12.6439 172.715 12.561 172.262 12.561C171.794 12.561 171.384 12.6522 171.033 12.8346C170.682 13.0005 170.38 13.2244 170.129 13.5063C169.896 13.7883 169.711 14.1117 169.577 14.4766C169.443 14.8414 169.352 15.2146 169.301 15.5961H174.948ZM183.589 16.8399C183.589 18.1668 183.906 19.2116 184.542 19.9745C185.178 20.7209 186.057 21.094 187.177 21.094C187.663 21.094 188.072 21.0775 188.407 21.0443C188.758 20.9945 189.043 20.9448 189.26 20.895V13.4317C188.993 13.2492 188.633 13.0834 188.181 12.9341C187.747 12.7683 187.278 12.6854 186.776 12.6854C185.672 12.6854 184.86 13.0585 184.342 13.8049C183.84 14.5512 183.589 15.5629 183.589 16.8399ZM192.297 22.9848C191.695 23.1672 190.933 23.333 190.013 23.4823C189.11 23.6316 188.156 23.7062 187.152 23.7062C186.115 23.7062 185.186 23.5486 184.366 23.2335C183.547 22.9184 182.844 22.4706 182.258 21.8901C181.689 21.2931 181.247 20.5799 180.929 19.7506C180.627 18.9048 180.476 17.9594 180.476 16.9146C180.476 15.8863 180.602 14.9575 180.853 14.1283C181.121 13.2824 181.505 12.561 182.007 11.9639C182.509 11.3668 183.12 10.9107 183.84 10.5956C184.559 10.2639 185.388 10.0981 186.324 10.0981C186.96 10.0981 187.521 10.1727 188.005 10.322C188.491 10.4712 188.909 10.6371 189.26 10.8195V4.57519L192.297 4.07764V22.9848ZM75.8628 35.4789C75.8628 36.217 75.7451 36.8596 75.5107 37.407C75.2772 37.9543 74.946 38.4104 74.5199 38.7752C74.1016 39.1401 73.5997 39.4138 73.0141 39.5962C72.4285 39.7786 71.7845 39.8699 71.0813 39.8699C70.7301 39.8699 70.3624 39.8491 69.9772 39.8077C69.5921 39.7745 69.2539 39.7206 68.9611 39.646V31.3368C69.2539 31.2539 69.5921 31.1958 69.9772 31.1626C70.3624 31.1212 70.7301 31.1004 71.0813 31.1004C71.7845 31.1004 72.4285 31.1917 73.0141 31.3741C73.5997 31.5565 74.1016 31.8302 74.5199 32.1951C74.946 32.5599 75.2772 33.016 75.5107 33.5633C75.7451 34.1107 75.8628 34.7492 75.8628 35.4789ZM69.8143 39.0489C69.8639 39.0572 69.9894 39.0738 70.1907 39.0986C70.3999 39.1235 70.7301 39.136 71.1815 39.136C71.8089 39.136 72.3571 39.053 72.8259 38.8872C73.2938 38.713 73.6877 38.4684 74.0049 38.1533C74.323 37.8382 74.5617 37.4567 74.7203 37.0089C74.8798 36.5528 74.9591 36.0428 74.9591 35.4789C74.9591 34.915 74.8798 34.4092 74.7203 33.9614C74.5617 33.5136 74.323 33.1321 74.0049 32.817C73.6877 32.5019 73.2938 32.2614 72.8259 32.0956C72.3571 31.9214 71.8089 31.8343 71.1815 31.8343C70.7301 31.8343 70.3999 31.8468 70.1907 31.8717C69.9894 31.8965 69.8639 31.9131 69.8143 31.9214V39.0489ZM78.5371 39.7952H77.7215V33.3643H78.5371V39.7952ZM78.7254 31.4239C78.7254 31.6146 78.667 31.768 78.5493 31.8841C78.4326 31.9919 78.2905 32.0458 78.1232 32.0458C77.9559 32.0458 77.8139 31.9919 77.6962 31.8841C77.5795 31.768 77.5211 31.6146 77.5211 31.4239C77.5211 31.2331 77.5795 31.0839 77.6962 30.9761C77.8139 30.86 77.9559 30.8019 78.1232 30.8019C78.2905 30.8019 78.4326 30.86 78.5493 30.9761C78.667 31.0839 78.7254 31.2331 78.7254 31.4239ZM84.9281 39.0489C84.8776 39.0904 84.8026 39.1401 84.7024 39.1982C84.6022 39.2479 84.4767 39.3018 84.326 39.3599C84.1839 39.4179 84.0166 39.4677 83.824 39.5091C83.6402 39.5423 83.431 39.5589 83.1966 39.5589C82.8202 39.5589 82.4559 39.5008 82.1047 39.3847C81.7535 39.2686 81.4442 39.0862 81.1758 38.8374C80.917 38.5887 80.7078 38.2694 80.5484 37.8796C80.3898 37.4816 80.3105 37.0006 80.3105 36.4367C80.3105 35.9806 80.3811 35.5577 80.524 35.168C80.666 34.7782 80.8664 34.4424 81.1261 34.1604C81.3936 33.8702 81.7161 33.6463 82.0925 33.4887C82.4768 33.3229 82.9082 33.2399 83.3848 33.2399C83.987 33.2399 84.468 33.2814 84.8279 33.3643C85.1956 33.439 85.4971 33.5136 85.7316 33.5882V39.4594C85.7316 40.4213 85.4806 41.1055 84.9787 41.5118C84.4767 41.9264 83.7195 42.1337 82.7069 42.1337C82.2886 42.1337 81.9078 42.1006 81.5653 42.0342C81.2307 41.9762 80.9423 41.9057 80.6991 41.8228L80.8621 41.0889C81.0634 41.1801 81.3353 41.2589 81.6777 41.3252C82.0298 41.3916 82.381 41.4247 82.7321 41.4247C83.5016 41.4247 84.0584 41.2755 84.4009 40.9769C84.7521 40.6867 84.9281 40.185 84.9281 39.4718V39.0489ZM84.9159 34.148C84.773 34.1065 84.5891 34.0692 84.3634 34.036C84.1377 33.9946 83.8153 33.9738 83.397 33.9738C83.0459 33.9738 82.7321 34.036 82.4559 34.1604C82.1884 34.2765 81.9583 34.4465 81.7657 34.6704C81.5732 34.886 81.4268 35.1472 81.3265 35.4541C81.2263 35.7526 81.1758 36.0843 81.1758 36.4492C81.1758 36.8721 81.2351 37.237 81.3518 37.5438C81.4686 37.8423 81.6193 38.087 81.8032 38.2777C81.9958 38.4684 82.2136 38.6094 82.4559 38.7006C82.699 38.7835 82.9456 38.825 83.1966 38.825C83.5643 38.825 83.899 38.7711 84.2005 38.6633C84.5098 38.5555 84.7486 38.4311 84.9159 38.2901V34.148ZM88.7083 39.7952H87.8927V33.3643H88.7083V39.7952ZM88.8965 31.4239C88.8965 31.6146 88.8382 31.768 88.7205 31.8841C88.6037 31.9919 88.4617 32.0458 88.2944 32.0458C88.1271 32.0458 87.9842 31.9919 87.8674 31.8841C87.7506 31.768 87.6914 31.6146 87.6914 31.4239C87.6914 31.2331 87.7506 31.0839 87.8674 30.9761C87.9842 30.86 88.1271 30.8019 88.2944 30.8019C88.4617 30.8019 88.6037 30.86 88.7205 30.9761C88.8382 31.0839 88.8965 31.2331 88.8965 31.4239ZM91.6354 33.3643H94.2209V34.0485H91.6354V37.4692C91.6354 37.834 91.665 38.1326 91.7234 38.3648C91.7905 38.5887 91.8829 38.7628 91.9997 38.8872C92.1164 39.0116 92.2593 39.0945 92.4266 39.136C92.594 39.1774 92.7778 39.1982 92.9783 39.1982C93.3216 39.1982 93.5978 39.1608 93.807 39.0862C94.0161 39.0033 94.1791 38.9287 94.2958 38.8623L94.4971 39.534C94.3795 39.6086 94.1747 39.6957 93.8819 39.7952C93.5891 39.8864 93.2711 39.9321 92.9286 39.9321C92.5269 39.9321 92.1879 39.8823 91.9116 39.7828C91.6441 39.675 91.4263 39.5174 91.2589 39.3101C91.1004 39.0945 90.9871 38.8291 90.9208 38.514C90.8537 38.1989 90.8198 37.8257 90.8198 37.3945V31.4736L91.6354 31.3243V33.3643ZM97.7684 39.2106C98.0865 39.2106 98.3627 39.2023 98.5963 39.1857C98.8394 39.1608 99.0442 39.1318 99.2115 39.0986V36.8348C99.1191 36.7933 98.9727 36.7518 98.7723 36.7104C98.5719 36.6606 98.2956 36.6358 97.9445 36.6358C97.7432 36.6358 97.534 36.6523 97.317 36.6855C97.0992 36.7104 96.8988 36.7726 96.714 36.8721C96.5301 36.9633 96.3794 37.0918 96.2626 37.2577C96.1459 37.4235 96.0866 37.6433 96.0866 37.917C96.0866 38.1574 96.1249 38.3606 96.1999 38.5265C96.2835 38.6923 96.3968 38.825 96.5389 38.9245C96.6896 39.024 96.8648 39.0987 97.0661 39.1484C97.2752 39.1899 97.5087 39.2106 97.7684 39.2106ZM97.6935 33.2151C98.1196 33.2151 98.4795 33.2772 98.7723 33.4016C99.0738 33.5177 99.3161 33.6836 99.4999 33.8992C99.6838 34.1065 99.818 34.3553 99.9017 34.6455C99.9853 34.9358 100.027 35.2509 100.027 35.5909V39.646C99.9435 39.6708 99.8224 39.6999 99.6629 39.733C99.5043 39.7579 99.3204 39.7869 99.1113 39.8201C98.9021 39.8533 98.6677 39.8782 98.4081 39.8947C98.1571 39.9196 97.8983 39.9321 97.6307 39.9321C97.2874 39.9321 96.9693 39.8947 96.6765 39.8201C96.3925 39.7455 96.1415 39.6294 95.9236 39.4718C95.7145 39.306 95.5472 39.0987 95.4217 38.8499C95.3049 38.5928 95.2465 38.2818 95.2465 37.917C95.2465 37.5687 95.3128 37.2701 95.447 37.0214C95.5812 36.7726 95.7694 36.5694 96.0117 36.4118C96.2539 36.246 96.5432 36.1258 96.8778 36.0511C97.2125 35.9765 97.5758 35.9392 97.9689 35.9392C98.0865 35.9392 98.2076 35.9475 98.3331 35.9641C98.4673 35.9723 98.5928 35.9889 98.7096 36.0138C98.835 36.0304 98.9396 36.0511 99.0233 36.076C99.1156 36.0926 99.1784 36.1092 99.2115 36.1258V35.7277C99.2115 35.5038 99.1949 35.2882 99.161 35.0809C99.1278 34.8653 99.0529 34.6745 98.9353 34.5087C98.8263 34.3346 98.6677 34.1977 98.4586 34.0982C98.2582 33.9904 97.9898 33.9365 97.6551 33.9365C97.1785 33.9365 96.8229 33.9697 96.5885 34.036C96.355 34.1024 96.1833 34.1563 96.0744 34.1977L95.9611 33.4887C96.104 33.4224 96.321 33.3602 96.6138 33.3021C96.9153 33.2441 97.2752 33.2151 97.6935 33.2151ZM103.752 39.9072C103.475 39.8989 103.233 39.8616 103.024 39.7952C102.823 39.7372 102.651 39.646 102.509 39.5216C102.376 39.3889 102.271 39.223 102.195 39.024C102.128 38.8167 102.095 38.5596 102.095 38.2528V30.2919L102.911 30.1426V38.2279C102.911 38.427 102.927 38.5887 102.961 38.713C103.003 38.8291 103.061 38.9245 103.136 38.9991C103.212 39.0655 103.308 39.1152 103.425 39.1484C103.55 39.1816 103.697 39.2106 103.864 39.2355L103.752 39.9072ZM114.059 39.7952C113.9 39.3723 113.749 38.966 113.607 38.5762C113.465 38.1865 113.327 37.805 113.193 37.4318H108.964C108.822 37.805 108.679 38.1865 108.537 38.5762C108.395 38.966 108.249 39.3723 108.098 39.7952H107.208C107.542 38.8996 107.856 38.0662 108.149 37.295C108.442 36.5155 108.726 35.7816 109.002 35.0933C109.286 34.3967 109.567 33.7292 109.843 33.0907C110.119 32.4521 110.412 31.8136 110.721 31.1751H111.474C111.783 31.8136 112.076 32.4521 112.352 33.0907C112.629 33.7292 112.904 34.3967 113.18 35.0933C113.465 35.7816 113.754 36.5155 114.046 37.295C114.339 38.0662 114.657 38.8996 115 39.7952H114.059ZM111.072 32.1453C110.754 32.8585 110.445 33.5841 110.143 34.3221C109.851 35.0602 109.546 35.8562 109.228 36.7104H112.929C112.611 35.8562 112.302 35.0602 112.001 34.3221C111.7 33.5841 111.39 32.8585 111.072 32.1453ZM117.689 39.223C118.158 39.223 118.543 39.1484 118.844 38.9991C119.153 38.8416 119.308 38.5804 119.308 38.2155C119.308 38.0413 119.278 37.8921 119.22 37.7677C119.17 37.6433 119.082 37.5314 118.957 37.4318C118.831 37.3323 118.664 37.237 118.455 37.1457C118.254 37.0545 118.003 36.9467 117.702 36.8223C117.459 36.7228 117.229 36.6233 117.012 36.5238C116.794 36.416 116.601 36.2958 116.434 36.1631C116.267 36.0221 116.134 35.8562 116.033 35.6655C115.932 35.4748 115.883 35.2426 115.883 34.9689C115.883 34.4465 116.079 34.0236 116.473 33.7002C116.873 33.3768 117.421 33.2151 118.116 33.2151C118.56 33.2151 118.923 33.2524 119.208 33.327C119.501 33.4016 119.705 33.468 119.822 33.526L119.634 34.2475C119.534 34.1977 119.362 34.1314 119.12 34.0485C118.885 33.9655 118.539 33.9241 118.079 33.9241C117.895 33.9241 117.719 33.9448 117.551 33.9863C117.393 34.0194 117.25 34.0775 117.124 34.1604C116.999 34.235 116.899 34.3346 116.824 34.4589C116.748 34.575 116.71 34.7202 116.71 34.8943C116.71 35.0684 116.744 35.2177 116.811 35.3421C116.878 35.4665 116.974 35.5784 117.1 35.678C117.233 35.7692 117.393 35.8562 117.577 35.9392C117.769 36.0221 117.986 36.1133 118.229 36.2128C118.48 36.3123 118.718 36.416 118.944 36.5238C119.178 36.6233 119.383 36.7477 119.559 36.897C119.735 37.0379 119.877 37.2121 119.986 37.4194C120.094 37.6184 120.149 37.8713 120.149 38.1782C120.149 38.7587 119.927 39.1982 119.484 39.4967C119.048 39.7952 118.451 39.9445 117.689 39.9445C117.121 39.9445 116.685 39.8947 116.384 39.7952C116.083 39.704 115.883 39.6335 115.782 39.5838L115.995 38.8499C116.02 38.8665 116.075 38.8955 116.159 38.9369C116.242 38.9701 116.355 39.0116 116.497 39.0613C116.64 39.1028 116.807 39.1401 116.999 39.1733C117.2 39.2065 117.43 39.223 117.689 39.223ZM123.057 39.223C123.525 39.223 123.91 39.1484 124.212 38.9991C124.521 38.8416 124.675 38.5804 124.675 38.2155C124.675 38.0413 124.646 37.8921 124.588 37.7677C124.537 37.6433 124.449 37.5314 124.324 37.4318C124.198 37.3323 124.031 37.237 123.822 37.1457C123.622 37.0545 123.371 36.9467 123.069 36.8223C122.827 36.7228 122.597 36.6233 122.379 36.5238C122.162 36.416 121.969 36.2958 121.802 36.1631C121.635 36.0221 121.501 35.8562 121.4 35.6655C121.3 35.4748 121.25 35.2426 121.25 34.9689C121.25 34.4465 121.447 34.0236 121.84 33.7002C122.241 33.3768 122.789 33.2151 123.483 33.2151C123.927 33.2151 124.291 33.2524 124.575 33.327C124.868 33.4016 125.073 33.468 125.19 33.526L125.002 34.2475C124.902 34.1977 124.73 34.1314 124.487 34.0485C124.253 33.9655 123.906 33.9241 123.446 33.9241C123.262 33.9241 123.086 33.9448 122.918 33.9863C122.76 34.0194 122.618 34.0775 122.492 34.1604C122.367 34.235 122.267 34.3346 122.191 34.4589C122.116 34.575 122.078 34.7202 122.078 34.8943C122.078 35.0684 122.111 35.2177 122.179 35.3421C122.246 35.4665 122.341 35.5784 122.467 35.678C122.601 35.7692 122.76 35.8562 122.944 35.9392C123.136 36.0221 123.354 36.1133 123.596 36.2128C123.847 36.3123 124.086 36.416 124.312 36.5238C124.546 36.6233 124.751 36.7477 124.926 36.897C125.102 37.0379 125.244 37.2121 125.353 37.4194C125.462 37.6184 125.516 37.8713 125.516 38.1782C125.516 38.7587 125.295 39.1982 124.851 39.4967C124.416 39.7952 123.818 39.9445 123.057 39.9445C122.488 39.9445 122.053 39.8947 121.752 39.7952C121.451 39.704 121.25 39.6335 121.149 39.5838L121.363 38.8499C121.388 38.8665 121.442 38.8955 121.526 38.9369C121.61 38.9701 121.723 39.0116 121.865 39.0613C122.007 39.1028 122.174 39.1401 122.367 39.1733C122.567 39.2065 122.797 39.223 123.057 39.223ZM126.705 36.5736C126.705 36.0097 126.785 35.5204 126.943 35.1058C127.111 34.6828 127.324 34.3304 127.583 34.0485C127.851 33.7665 128.152 33.5592 128.487 33.4265C128.83 33.2855 129.181 33.2151 129.541 33.2151C130.336 33.2151 130.968 33.4721 131.436 33.9863C131.912 34.5004 132.151 35.2923 132.151 36.3621C132.151 36.4284 132.147 36.4948 132.139 36.5611C132.139 36.6275 132.134 36.6896 132.126 36.7477H127.571C127.596 37.5355 127.792 38.1409 128.161 38.5638C128.529 38.9867 129.114 39.1982 129.918 39.1982C130.361 39.1982 130.712 39.1567 130.971 39.0738C131.231 38.9908 131.419 38.9204 131.536 38.8623L131.687 39.5589C131.57 39.6252 131.348 39.704 131.022 39.7952C130.704 39.8864 130.327 39.9321 129.892 39.9321C129.323 39.9321 128.838 39.8491 128.437 39.6833C128.035 39.5174 127.705 39.2852 127.445 38.9867C127.186 38.6882 126.997 38.3357 126.881 37.9294C126.764 37.5148 126.705 37.0628 126.705 36.5736ZM131.31 36.0636C131.294 35.3919 131.135 34.8694 130.833 34.4963C130.532 34.1231 130.106 33.9365 129.553 33.9365C129.261 33.9365 128.997 33.9946 128.763 34.1107C128.537 34.2268 128.336 34.3843 128.161 34.5833C127.993 34.7741 127.859 34.998 127.759 35.255C127.667 35.5121 127.613 35.7816 127.596 36.0636H131.31ZM134.734 33.3643H137.319V34.0485H134.734V37.4692C134.734 37.834 134.764 38.1326 134.822 38.3648C134.889 38.5887 134.981 38.7628 135.098 38.8872C135.215 39.0116 135.357 39.0945 135.524 39.136C135.692 39.1774 135.876 39.1982 136.077 39.1982C136.42 39.1982 136.695 39.1608 136.905 39.0862C137.114 39.0033 137.278 38.9287 137.394 38.8623L137.595 39.534C137.478 39.6086 137.273 39.6957 136.98 39.7952C136.688 39.8864 136.37 39.9321 136.026 39.9321C135.625 39.9321 135.286 39.8823 135.01 39.7828C134.743 39.675 134.525 39.5174 134.357 39.3101C134.199 39.0945 134.086 38.8291 134.018 38.514C133.952 38.1989 133.918 37.8257 133.918 37.3945V31.4736L134.734 31.3243V33.3643ZM145.341 39.9818C144.78 39.9818 144.258 39.8823 143.772 39.6833C143.296 39.4843 142.877 39.194 142.517 38.8126C142.166 38.4311 141.886 37.9626 141.676 37.407C141.476 36.8431 141.376 36.2004 141.376 35.4789C141.376 34.7575 141.484 34.1189 141.702 33.5633C141.927 32.9994 142.225 32.5268 142.592 32.1453C142.961 31.7639 143.387 31.4778 143.872 31.287C144.358 31.088 144.864 30.9885 145.391 30.9885C145.717 30.9885 146.014 31.0092 146.282 31.0507C146.549 31.0922 146.784 31.1461 146.984 31.2124C147.186 31.2704 147.357 31.3326 147.499 31.399C147.641 31.457 147.75 31.5109 147.825 31.5607L147.549 32.2946C147.34 32.1702 147.072 32.0499 146.746 31.9338C146.428 31.8095 146.031 31.7473 145.554 31.7473C145.011 31.7473 144.534 31.8385 144.123 32.0209C143.722 32.2034 143.384 32.4604 143.107 32.7921C142.831 33.1238 142.622 33.5177 142.48 33.9738C142.346 34.4299 142.279 34.9358 142.279 35.4914C142.279 36.0636 142.346 36.5819 142.48 37.0462C142.622 37.5023 142.827 37.8921 143.094 38.2155C143.363 38.5389 143.689 38.7877 144.074 38.9618C144.467 39.136 144.914 39.223 145.416 39.223C145.968 39.223 146.428 39.1733 146.796 39.0738C147.173 38.966 147.457 38.8582 147.65 38.7504L147.888 39.4718C147.83 39.5133 147.729 39.563 147.587 39.6211C147.444 39.6708 147.265 39.7247 147.047 39.7828C146.83 39.8408 146.579 39.8864 146.294 39.9196C146.01 39.9611 145.692 39.9818 145.341 39.9818ZM154.194 39.5713C153.952 39.6377 153.626 39.7123 153.216 39.7952C152.806 39.8782 152.304 39.9196 151.71 39.9196C151.225 39.9196 150.819 39.8491 150.493 39.7082C150.167 39.5672 149.904 39.3682 149.702 39.1111C149.502 38.854 149.355 38.543 149.263 38.1782C149.179 37.8133 149.138 37.4111 149.138 36.9716V33.3643H149.953V36.7104C149.953 37.1665 149.987 37.5521 150.053 37.8672C150.12 38.1823 150.229 38.4394 150.38 38.6384C150.531 38.8291 150.723 38.9701 150.957 39.0613C151.2 39.1443 151.493 39.1857 151.835 39.1857C152.221 39.1857 152.555 39.165 152.839 39.1235C153.124 39.0821 153.304 39.0447 153.379 39.0116V33.3643H154.194V39.5713ZM157.687 39.223C158.156 39.223 158.541 39.1484 158.842 38.9991C159.151 38.8416 159.306 38.5804 159.306 38.2155C159.306 38.0413 159.276 37.8921 159.218 37.7677C159.168 37.6433 159.08 37.5314 158.955 37.4318C158.829 37.3323 158.662 37.237 158.453 37.1457C158.252 37.0545 158.001 36.9467 157.7 36.8223C157.457 36.7228 157.227 36.6233 157.01 36.5238C156.792 36.416 156.599 36.2958 156.432 36.1631C156.265 36.0221 156.132 35.8562 156.031 35.6655C155.93 35.4748 155.881 35.2426 155.881 34.9689C155.881 34.4465 156.077 34.0236 156.471 33.7002C156.871 33.3768 157.419 33.2151 158.114 33.2151C158.558 33.2151 158.921 33.2524 159.206 33.327C159.499 33.4016 159.703 33.468 159.82 33.526L159.632 34.2475C159.532 34.1977 159.36 34.1314 159.118 34.0485C158.883 33.9655 158.537 33.9241 158.077 33.9241C157.893 33.9241 157.717 33.9448 157.549 33.9863C157.391 34.0194 157.248 34.0775 157.122 34.1604C156.997 34.235 156.897 34.3346 156.822 34.4589C156.746 34.575 156.708 34.7202 156.708 34.8943C156.708 35.0684 156.742 35.2177 156.809 35.3421C156.876 35.4665 156.972 35.5784 157.098 35.678C157.231 35.7692 157.391 35.8562 157.575 35.9392C157.767 36.0221 157.984 36.1133 158.227 36.2128C158.478 36.3123 158.716 36.416 158.942 36.5238C159.176 36.6233 159.381 36.7477 159.557 36.897C159.733 37.0379 159.875 37.2121 159.984 37.4194C160.092 37.6184 160.147 37.8713 160.147 38.1782C160.147 38.7587 159.925 39.1982 159.482 39.4967C159.046 39.7952 158.449 39.9445 157.687 39.9445C157.119 39.9445 156.683 39.8947 156.382 39.7952C156.081 39.704 155.881 39.6335 155.78 39.5838L155.993 38.8499C156.018 38.8665 156.073 38.8955 156.157 38.9369C156.24 38.9701 156.353 39.0116 156.495 39.0613C156.638 39.1028 156.805 39.1401 156.997 39.1733C157.198 39.2065 157.428 39.223 157.687 39.223ZM162.49 33.3643H165.075V34.0485H162.49V37.4692C162.49 37.834 162.519 38.1326 162.578 38.3648C162.644 38.5887 162.737 38.7628 162.854 38.8872C162.971 39.0116 163.113 39.0945 163.281 39.136C163.448 39.1774 163.632 39.1982 163.833 39.1982C164.176 39.1982 164.452 39.1608 164.661 39.0862C164.87 39.0033 165.033 38.9287 165.151 38.8623L165.351 39.534C165.234 39.6086 165.029 39.6957 164.736 39.7952C164.443 39.8864 164.126 39.9321 163.783 39.9321C163.381 39.9321 163.042 39.8823 162.767 39.7828C162.498 39.675 162.281 39.5174 162.114 39.3101C161.954 39.0945 161.842 38.8291 161.775 38.514C161.708 38.1989 161.675 37.8257 161.675 37.3945V31.4736L162.49 31.3243V33.3643ZM172.112 36.586C172.112 37.0918 172.036 37.5521 171.885 37.9667C171.743 38.3813 171.538 38.7338 171.271 39.024C171.011 39.3143 170.702 39.5423 170.342 39.7082C169.982 39.8657 169.584 39.9445 169.15 39.9445C168.715 39.9445 168.317 39.8657 167.958 39.7082C167.598 39.5423 167.284 39.3143 167.016 39.024C166.758 38.7338 166.552 38.3813 166.402 37.9667C166.259 37.5521 166.189 37.0918 166.189 36.586C166.189 36.0801 166.259 35.6199 166.402 35.2053C166.552 34.7906 166.758 34.4382 167.016 34.148C167.284 33.8494 167.598 33.6214 167.958 33.4638C168.317 33.298 168.715 33.2151 169.15 33.2151C169.584 33.2151 169.982 33.298 170.342 33.4638C170.702 33.6214 171.011 33.8494 171.271 34.148C171.538 34.4382 171.743 34.7906 171.885 35.2053C172.036 35.6199 172.112 36.0801 172.112 36.586ZM171.245 36.586C171.245 35.7816 171.057 35.1431 170.681 34.6704C170.304 34.1894 169.794 33.9489 169.15 33.9489C168.506 33.9489 167.995 34.1894 167.619 34.6704C167.242 35.1431 167.054 35.7816 167.054 36.586C167.054 37.3904 167.242 38.0289 167.619 38.5016C167.995 38.9743 168.506 39.2106 169.15 39.2106C169.794 39.2106 170.304 38.9743 170.681 38.5016C171.057 38.0289 171.245 37.3904 171.245 36.586ZM179.038 39.5962C178.795 39.6791 178.486 39.7579 178.11 39.8325C177.733 39.9072 177.256 39.9445 176.68 39.9445C176.202 39.9445 175.767 39.8699 175.374 39.7206C174.989 39.563 174.654 39.3391 174.37 39.0489C174.094 38.7587 173.877 38.4062 173.718 37.9916C173.567 37.577 173.492 37.1084 173.492 36.586C173.492 36.0967 173.555 35.6489 173.68 35.2426C173.814 34.828 174.006 34.4714 174.257 34.1728C174.508 33.8743 174.814 33.6421 175.174 33.4763C175.541 33.3104 175.96 33.2275 176.429 33.2275C176.855 33.2275 177.223 33.2897 177.533 33.4141C177.851 33.5302 178.081 33.6421 178.223 33.7499V30.2919L179.038 30.1426V39.5962ZM178.223 34.5336C178.147 34.4755 178.051 34.4133 177.934 34.347C177.825 34.2807 177.696 34.2185 177.545 34.1604C177.394 34.1024 177.231 34.0568 177.056 34.0236C176.88 33.9821 176.696 33.9614 176.503 33.9614C176.102 33.9614 175.763 34.0319 175.487 34.1728C175.219 34.3138 175.002 34.5046 174.835 34.745C174.667 34.9772 174.546 35.255 174.47 35.5784C174.396 35.8936 174.358 36.2294 174.358 36.586C174.358 37.4318 174.571 38.0828 174.998 38.5389C175.425 38.9867 175.989 39.2106 176.692 39.2106C177.093 39.2106 177.415 39.194 177.658 39.1608C177.909 39.1194 178.097 39.0779 178.223 39.0365V34.5336ZM182.013 39.7952H181.197V33.3643H182.013V39.7952ZM182.201 31.4239C182.201 31.6146 182.142 31.768 182.025 31.8841C181.908 31.9919 181.766 32.0458 181.599 32.0458C181.431 32.0458 181.288 31.9919 181.172 31.8841C181.055 31.768 180.996 31.6146 180.996 31.4239C180.996 31.2331 181.055 31.0839 181.172 30.9761C181.288 30.86 181.431 30.8019 181.599 30.8019C181.766 30.8019 181.908 30.86 182.025 30.9761C182.142 31.0839 182.201 31.2331 182.201 31.4239ZM186.22 39.2106C186.538 39.2106 186.814 39.2023 187.049 39.1857C187.291 39.1608 187.496 39.1318 187.663 39.0986V36.8348C187.571 36.7933 187.425 36.7518 187.224 36.7104C187.023 36.6606 186.747 36.6358 186.396 36.6358C186.195 36.6358 185.985 36.6523 185.768 36.6855C185.551 36.7104 185.35 36.7726 185.166 36.8721C184.981 36.9633 184.832 37.0918 184.714 37.2577C184.597 37.4235 184.539 37.6433 184.539 37.917C184.539 38.1574 184.576 38.3606 184.651 38.5265C184.735 38.6923 184.848 38.825 184.99 38.9245C185.141 39.024 185.316 39.0987 185.517 39.1484C185.727 39.1899 185.961 39.2106 186.22 39.2106ZM186.145 33.2151C186.571 33.2151 186.931 33.2772 187.224 33.4016C187.525 33.5177 187.767 33.6836 187.951 33.8992C188.136 34.1065 188.269 34.3553 188.353 34.6455C188.437 34.9358 188.478 35.2509 188.478 35.5909V39.646C188.395 39.6708 188.274 39.6999 188.115 39.733C187.956 39.7579 187.772 39.7869 187.563 39.8201C187.353 39.8533 187.119 39.8782 186.86 39.8947C186.609 39.9196 186.35 39.9321 186.082 39.9321C185.739 39.9321 185.421 39.8947 185.128 39.8201C184.844 39.7455 184.593 39.6294 184.375 39.4718C184.166 39.306 183.999 39.0987 183.873 38.8499C183.756 38.5928 183.698 38.2818 183.698 37.917C183.698 37.5687 183.765 37.2701 183.898 37.0214C184.033 36.7726 184.221 36.5694 184.463 36.4118C184.706 36.246 184.995 36.1258 185.329 36.0511C185.664 35.9765 186.027 35.9392 186.421 35.9392C186.538 35.9392 186.659 35.9475 186.784 35.9641C186.919 35.9723 187.044 35.9889 187.161 36.0138C187.286 36.0304 187.391 36.0511 187.475 36.076C187.567 36.0926 187.63 36.1092 187.663 36.1258V35.7277C187.663 35.5038 187.646 35.2882 187.613 35.0809C187.579 34.8653 187.504 34.6745 187.387 34.5087C187.279 34.3346 187.119 34.1977 186.91 34.0982C186.71 33.9904 186.442 33.9365 186.107 33.9365C185.63 33.9365 185.274 33.9697 185.041 34.036C184.806 34.1024 184.635 34.1563 184.526 34.1977L184.413 33.4887C184.555 33.4224 184.772 33.3602 185.065 33.3021C185.367 33.2441 185.727 33.2151 186.145 33.2151ZM190.559 33.5882C190.802 33.5219 191.128 33.4472 191.538 33.3643C191.948 33.2814 192.45 33.2399 193.044 33.2399C193.537 33.2399 193.947 33.3104 194.273 33.4514C194.608 33.5924 194.871 33.7955 195.064 34.0609C195.264 34.318 195.407 34.6289 195.491 34.9938C195.574 35.3587 195.616 35.7609 195.616 36.2004V39.7952H194.801V36.4616C194.801 36.0055 194.767 35.6199 194.7 35.3048C194.641 34.9897 194.537 34.7326 194.386 34.5336C194.244 34.3346 194.051 34.1936 193.809 34.1107C193.575 34.0194 193.277 33.9738 192.918 33.9738C192.533 33.9738 192.199 33.9946 191.915 34.036C191.638 34.0775 191.458 34.1148 191.374 34.148V39.7952H190.559V33.5882Z" fill="white"/>
<path d="M150.551 8.43897C151.633 8.43897 152.511 7.58813 152.511 6.53857C152.511 5.48902 151.633 4.63818 150.551 4.63818C149.468 4.63818 148.59 5.48902 148.59 6.53857C148.59 7.58813 149.468 8.43897 150.551 8.43897Z" fill="white"/>
<path d="M40.954 11.4893L34.1251 22.9825L20.4751 22.9868L27.3039 11.4935L40.954 11.4893Z" fill="#545454"/>
<path d="M20.4824 0.00390625L27.3037 11.493L20.4752 22.9861L13.6539 11.497L20.4824 0.00390625Z" fill="#A8A8A8"/>
<path d="M20.4817 0.00420922L27.3031 11.4933L40.953 11.4891L34.1317 0L20.4817 0.00420922Z" fill="#F0F0F0"/>
<path d="M34.1209 46L27.2997 34.5025L34.1209 23.0049L40.9421 34.5025L34.1209 46Z" fill="#A8A8A8"/>
<path d="M54.5852 34.5021L40.9427 34.5022L34.1215 23.005L47.7639 23.0049L54.5852 34.5021Z" fill="#F0F0F0"/>
<path d="M54.5852 34.502H40.9427L34.1215 45.9995H47.764L54.5852 34.502Z" fill="#545454"/>
<path d="M0 34.5108L6.82885 23.0175L20.4789 23.0132L13.65 34.5066L0 34.5108Z" fill="#F0F0F0"/>
<path d="M20.4713 45.9959L13.65 34.5068L20.4785 23.0137L27.2997 34.5027L20.4713 45.9959Z" fill="#A8A8A8"/>
<path d="M20.4718 45.9964L13.6505 34.5073L0.000610352 34.5115L6.8218 46.0006L20.4718 45.9964Z" fill="#545454"/>
</svg>
